<svg width="229" height="215" viewBox="0 0 229 215" fill="none" xmlns="http://www.w3.org/2000/svg">
<path d="M1.33691 212.504C1.33691 151.279 50.9713 101.645 112.196 101.645C173.422 101.645 223.055 151.279 223.055 212.504" fill="#F68714"/>
<path d="M91.4011 212.504H70.2891V21.3333H91.4011V212.504Z" fill="white"/>
<path d="M72.2891 210.504H89.4011V23.3333H72.2891V210.504ZM93.4011 214.504H68.2891V19.3333H93.4011V214.504Z" fill="#1B324F"/>
<path d="M188.734 212.504H167.622V21.3333H188.734V212.504Z" fill="white"/>
<path d="M169.622 210.504H186.734V23.3333H169.622V210.504ZM190.734 214.504H165.622V19.3333H190.734V214.504Z" fill="#1B324F"/>
<path d="M180.067 48.8879H167.622V40.8879H180.067V48.8879Z" fill="#7BD3DD"/>
<path d="M91.401 48.8879H78.9557V40.8879H91.401V48.8879Z" fill="#7BD3DD"/>
<path d="M180.067 63.8879H167.622V55.8879H180.067V63.8879Z" fill="#7BD3DD"/>
<path d="M180.067 78.888H167.622V70.888H180.067V78.888Z" fill="#7BD3DD"/>
<path d="M180.067 93.888H167.622V85.888H180.067V93.888Z" fill="#7BD3DD"/>
<path d="M180.067 108.889H167.622V100.888H180.067V108.889Z" fill="#7BD3DD"/>
<path d="M180.067 123.889H167.622V115.889H180.067V123.889Z" fill="#7BD3DD"/>
<path d="M180.067 138.889H167.622V130.889H180.067V138.889Z" fill="#7BD3DD"/>
<path d="M180.067 153.889H167.622V145.889H180.067V153.889Z" fill="#7BD3DD"/>
<path d="M180.067 168.889H167.622V160.889H180.067V168.889Z" fill="#7BD3DD"/>
<path d="M180.067 183.889H167.622V175.889H180.067V183.889Z" fill="#7BD3DD"/>
<path d="M180.067 198.889H167.622V190.889H180.067V198.889Z" fill="#7BD3DD"/>
<path d="M167.622 212.504H91.4011V1.99998H167.622V212.504Z" fill="white"/>
<path d="M93.4011 210.504H165.622V4.00001H93.4011V210.504ZM169.622 214.504H89.4011V8.71642e-06H169.622V214.504Z" fill="#1B324F"/>
<path d="M98.8448 210.509V12.444H102.6V210.509H98.8448Z" fill="#7BD3DD"/>
<path d="M108.441 210.509V12.444H112.196V210.509H108.441Z" fill="#7BD3DD"/>
<path d="M118.038 210.509V12.444H121.793V210.509H118.038Z" fill="#7BD3DD"/>
<path d="M127.634 210.509V12.444H131.389V210.509H127.634Z" fill="#7BD3DD"/>
<path d="M137.23 210.509V12.444H140.986V210.509H137.23Z" fill="#7BD3DD"/>
<path d="M146.826 210.509V12.444H150.582V210.509H146.826Z" fill="#7BD3DD"/>
<path d="M156.423 210.509V12.444H160.178V210.509H156.423Z" fill="#7BD3DD"/>
<path d="M117.622 212.504H34.9557V51.6666H117.622V212.504Z" fill="white"/>
<path d="M91.4011 212.504H61.1781V195.112H91.4011V212.504Z" fill="#7BD3DD"/>
<path d="M67.401 81.7787H34.9557V73.7787H67.401V81.7787Z" fill="#7BD3DD"/>
<path d="M67.401 98.2213H34.9557V90.2213H67.401V98.2213Z" fill="#7BD3DD"/>
<path d="M67.401 114.667H34.9557V106.667H67.401V114.667Z" fill="#7BD3DD"/>
<path d="M67.401 131.112H34.9557V123.112H67.401V131.112Z" fill="#7BD3DD"/>
<path d="M67.401 147.556H34.9557V139.556H67.401V147.556Z" fill="#7BD3DD"/>
<path d="M67.401 164H34.9557V156H67.401V164Z" fill="#7BD3DD"/>
<path d="M67.401 180.445H34.9557V172.445H67.401V180.445Z" fill="#7BD3DD"/>
<path d="M117.622 81.7787H85.1781V73.7787H117.622V81.7787Z" fill="#7BD3DD"/>
<path d="M117.622 98.2213H85.1781V90.2213H117.622V98.2213Z" fill="#7BD3DD"/>
<path d="M117.622 114.667H85.1781V106.667H117.622V114.667Z" fill="#7BD3DD"/>
<path d="M117.622 131.112H85.1781V123.112H117.622V131.112Z" fill="#7BD3DD"/>
<path d="M117.622 147.556H85.1781V139.556H117.622V147.556Z" fill="#7BD3DD"/>
<path d="M117.622 164H85.1781V156H117.622V164Z" fill="#7BD3DD"/>
<path d="M117.622 180.445H85.1781V172.445H117.622V180.445Z" fill="#7BD3DD"/>
<path d="M117.622 63.3333H34.9557V59.3333H117.622V63.3333Z" fill="#1B324F"/>
<path d="M67.401 83.7787H34.9557V79.7787H67.401V83.7787Z" fill="#1B324F"/>
<path d="M117.622 83.7787H85.1781V79.7787H117.622V83.7787Z" fill="#1B324F"/>
<path d="M67.401 100.221H34.9557V96.2213H67.401V100.221Z" fill="#1B324F"/>
<path d="M117.622 100.221H85.1781V96.2213H117.622V100.221Z" fill="#1B324F"/>
<path d="M67.401 116.667H34.9557V112.667H67.401V116.667Z" fill="#1B324F"/>
<path d="M117.622 116.667H85.1781V112.667H117.622V116.667Z" fill="#1B324F"/>
<path d="M67.401 133.112H34.9557V129.112H67.401V133.112Z" fill="#1B324F"/>
<path d="M117.622 133.112H85.1781V129.112H117.622V133.112Z" fill="#1B324F"/>
<path d="M67.401 149.556H34.9557V145.556H67.401V149.556Z" fill="#1B324F"/>
<path d="M117.622 149.556H85.1781V145.556H117.622V149.556Z" fill="#1B324F"/>
<path d="M67.401 166H34.9557V162H67.401V166Z" fill="#1B324F"/>
<path d="M117.622 166H85.1781V162H117.622V166Z" fill="#1B324F"/>
<path d="M67.401 182.445H34.9557V178.445H67.401V182.445Z" fill="#1B324F"/>
<path d="M106.28 197.112H46.2979V193.112H106.28V197.112Z" fill="#1B324F"/>
<path d="M117.622 182.445H85.1781V178.445H117.622V182.445Z" fill="#1B324F"/>
<path d="M78.2891 212.504H74.2891V195.112H78.2891V212.504Z" fill="#1B324F"/>
<path d="M56.1224 212.504H52.1224V195.112H56.1224V212.504Z" fill="#1B324F"/>
<path d="M100.561 212.504H96.5609V195.112H100.561V212.504Z" fill="#1B324F"/>
<path d="M36.9557 210.504H115.622V53.6666H36.9557V210.504ZM119.622 214.504H32.9557V49.6666H119.622V214.504Z" fill="#1B324F"/>
<path d="M217.193 214.467H213.193V176.595H217.193V214.467Z" fill="#1B324F"/>
<path d="M226.321 161.377C226.321 170.136 221.338 177.236 215.193 177.236C209.046 177.236 204.065 170.136 204.065 161.377C204.065 152.619 209.046 145.519 215.193 145.519C221.338 145.519 226.321 152.619 226.321 161.377Z" fill="white"/>
<path d="M215.193 147.519C210.245 147.519 206.065 153.865 206.065 161.377C206.065 168.891 210.245 175.236 215.193 175.236C220.141 175.236 224.321 168.891 224.321 161.377C224.321 153.865 220.141 147.519 215.193 147.519ZM215.193 179.236C207.954 179.236 202.065 171.225 202.065 161.377C202.065 151.531 207.954 143.519 215.193 143.519C222.431 143.519 228.321 151.531 228.321 161.377C228.321 171.225 222.431 179.236 215.193 179.236Z" fill="#1B324F"/>
<path d="M40.9557 212.504C40.6172 209.541 38.1041 207.239 35.0505 207.239C34.7041 207.239 34.3656 207.275 34.0348 207.332C33.3916 201.369 28.3457 196.725 22.212 196.725C17.6651 196.725 13.7161 199.28 11.7145 203.032C11.4031 202.997 11.0885 202.979 10.7677 202.979C5.92547 202.979 2 206.904 2 211.747C2 212.003 2.01667 212.255 2.03747 212.504H40.9557Z" fill="white"/>
<path d="M4.114 210.504H37.9463C37.0749 209.564 35.6844 209.075 34.376 209.303L32.2755 209.667L32.0463 207.547C31.5036 202.517 27.2755 198.725 22.212 198.725C18.5515 198.725 15.2057 200.736 13.4787 203.973L12.8421 205.167L11.4984 205.02C11.2572 204.993 11.0156 204.979 10.7677 204.979C7.46093 204.979 4.70053 207.364 4.114 210.504ZM43.1973 214.504H0.197335L0.0442668 212.671C0.0192001 212.365 0 212.059 0 211.747C0 205.863 4.7448 201.064 10.6088 200.98C13.1677 197.092 17.5052 194.725 22.212 194.725C28.6875 194.725 34.1885 199.141 35.6973 205.265C39.4473 205.568 42.5088 208.48 42.9421 212.276L43.1973 214.504Z" fill="#1B324F"/>
<path d="M223.543 212.504C223.205 209.541 220.691 207.239 217.638 207.239C217.291 207.239 216.953 207.275 216.622 207.332C215.979 201.369 210.933 196.725 204.799 196.725C200.251 196.725 196.303 199.28 194.302 203.032C193.99 202.997 193.675 202.979 193.355 202.979C188.513 202.979 184.587 206.904 184.587 211.747C184.587 212.003 184.603 212.255 184.625 212.504H223.543Z" fill="white"/>
<path d="M186.702 210.504H220.534C219.663 209.564 218.273 209.075 216.963 209.303L214.863 209.667L214.634 207.547C214.091 202.517 209.863 198.725 204.799 198.725C201.139 198.725 197.793 200.736 196.066 203.973L195.43 205.167L194.086 205.02C193.845 204.993 193.602 204.979 193.355 204.979C190.047 204.979 187.287 207.364 186.702 210.504ZM225.785 214.504H182.785L182.631 212.671C182.606 212.365 182.587 212.059 182.587 211.747C182.587 205.863 187.331 201.064 193.197 200.98C195.755 197.092 200.093 194.725 204.799 194.725C211.274 194.725 216.775 199.141 218.285 205.265C222.035 205.568 225.097 208.48 225.53 212.276L225.785 214.504Z" fill="#1B324F"/>
</svg>
